<svg xmlns:xlink="http://www.w3.org/1999/xlink" xmlns="http://www.w3.org/2000/svg" viewBox="0 0 22.43 20" width="22.43" height="20" ><path fill="#1C6DB6" d="M8.49,14.37a1.18,1.18,0,0,0,1.1-1.66L14.31,9a1.16,1.16,0,0,0,.71.23,1.21,1.21,0,0,0,.9-.41l3.85,1.86a1.5,1.5,0,0,0,0,.22,1.2,1.2,0,1,0,2.39,0,1.14,1.14,0,0,0-.07-.41l4.72-3.32A1.2,1.2,0,1,0,27.55,5a1.2,1.2,0,0,0-1.2,1.19,1.1,1.1,0,0,0,.07.41L21.71,9.93a1.18,1.18,0,0,0-1.66.13L16.19,8.2a.75.75,0,0,0,0-.21,1.2,1.2,0,1,0-2.39,0,1.19,1.19,0,0,0,.1.46L9.2,12.21A1.19,1.19,0,0,0,8.49,12a1.2,1.2,0,0,0,0,2.4Z" transform="translate(-6.81 -5)"></path><path fill="#1C6DB6" d="M28.92,24.36H27.74V10.52a.32.32,0,0,0-.32-.32H24.57a.32.32,0,0,0-.32.32V24.36H22.43V13.91a.32.32,0,0,0-.32-.32H19.25a.32.32,0,0,0-.32.32V24.36H17.11V12.44a.31.31,0,0,0-.31-.32H13.94a.32.32,0,0,0-.32.32V24.36H11.8V19.63a.32.32,0,0,0-.32-.32H8.62a.32.32,0,0,0-.32.32v4.73H7.13a.32.32,0,1,0,0,.64H28.92a.32.32,0,0,0,.32-.32A.32.32,0,0,0,28.92,24.36Z" transform="translate(-6.81 -5)"></path></svg>