<svg xmlns:xlink="http://www.w3.org/1999/xlink" xmlns="http://www.w3.org/2000/svg" viewBox="0 0 20.46 12.11" width="20.46" height="12.11" ><g><g><path fill="#202E61" d="M18,17a6.27,6.27,0,0,1-1.72-.24l-4.82-1.44v3.3a1.32,1.32,0,0,0,1,1.29l2.11.63a12.44,12.44,0,0,0,7.1,0l2.11-.63a1.33,1.33,0,0,0,1-1.29V15.28l-5,1.49A5.9,5.9,0,0,1,18,17Z" transform="translate(-7.79 -8.95)"></path><path fill="#202E61" d="M27.82,11.66,19.31,9.14a4.43,4.43,0,0,0-2.6,0L8.23,11.66a.62.62,0,0,0-.41.77.6.6,0,0,0,.41.41l8.5,2.52a4.46,4.46,0,0,0,2.61,0l7.28-2.15v1.92a.49.49,0,0,0-.26.41v.51a.46.46,0,0,0,.28.43l-.45,1.06a.22.22,0,0,0,.11.3l.08,0,.48.05h.28l.47-.05a.23.23,0,0,0,.2-.28.06.06,0,0,0,0,0l-.45-1.06a.46.46,0,0,0,.28-.43v-.51a.45.45,0,0,0-.26-.41V13l.48-.15a.63.63,0,0,0,.37-.8A.65.65,0,0,0,27.82,11.66Z" transform="translate(-7.79 -8.95)"></path></g></g></svg>