<svg xmlns:xlink="http://www.w3.org/1999/xlink" xmlns="http://www.w3.org/2000/svg" viewBox="0 0 17.01 20" width="17.01"  height="20" ><rect fill="#F79420" x="1.12" y="12.86" width="4.6" height="7.14"></rect><path fill="#F79420" d="M305.41,416.82v-1.91H303v-2.54h-2.43a3.15,3.15,0,0,0-5.2,0H293v2.54h-.14l-.1,0-.09,0h-2.08v1.91H289.5l1,1.2h15.08l1-1.2Z" transform="translate(-289.5 -411)"></path><path fill="#F79420" d="M305.43,423.42V418.5H290.59v4.92h4.63v-.13a2.82,2.82,0,0,1,2.81-2.82,2.93,2.93,0,0,1,2.8,2.95M293,422.07a1.12,1.12,0,1,1,1.12-1.12A1.11,1.11,0,0,1,293,422.07Zm10.17,0a1.12,1.12,0,1,1,1.12-1.12A1.15,1.15,0,0,1,303.13,422.07Z" transform="translate(-289.5 -411)"></path><rect fill="#F79420" x="11.33" y="12.86" width="4.58" height="7.14"></rect></svg>