<svg xmlns:xlink="http://www.w3.org/1999/xlink" xmlns="http://www.w3.org/2000/svg" width="26" height="14" viewBox="0 0 26 14">
  <g transform="translate(-5813.76 -16261.884)">
    <path d="M20.837,11.57a5.1,5.1,0,0,0,.531-1.062,6.6,6.6,0,0,0,.276-3.735,6.169,6.169,0,0,0-.611-1.706,6.843,6.843,0,0,0-1.9-2.246,7.35,7.35,0,0,0-3.363-1.416,7.131,7.131,0,0,0-4.657.8A7.051,7.051,0,0,0,8.073,5.437a6.724,6.724,0,0,0-.481,1.6A6.6,6.6,0,0,0,7.647,9.59a6.153,6.153,0,0,0,.57,1.581,7.252,7.252,0,0,0,2.366,2.618l.07.051c.053.04.177.047.155.11-.03.086-.148.043-.22.031a11.6,11.6,0,0,1-1.355-.3,15.718,15.718,0,0,1-3.9-1.735A20.384,20.384,0,0,1,1.26,8.609C.828,8.157.449,7.666.046,7.192a.14.14,0,0,1,0-.208,21.861,21.861,0,0,1,2.7-2.753A20.663,20.663,0,0,1,5.2,2.425,17.572,17.572,0,0,1,8.274.9,13.685,13.685,0,0,1,11.768.067,12.419,12.419,0,0,1,16.2.405a16.326,16.326,0,0,1,2.615.942,16.916,16.916,0,0,1,2.711,1.561,22.5,22.5,0,0,1,3.361,2.856c.368.384.715.785,1.056,1.192.081.1.071.166-.011.262a22.625,22.625,0,0,1-3.573,3.326c-.428.325-.871.629-1.31.938a.305.305,0,0,1-.214.088" transform="translate(5813.76 16261.883)" fill="#D2242A"></path>
    <path d="M-35.279,4.751v-2.2h.377v2.2Zm2.759,0h-.462L-34.114,3h-.013l.008.1q.022.28.022.512V4.751h-.342v-2.2h.457l1.13,1.746h.009q0-.035-.013-.252t-.009-.34V2.549h.345Zm1.792-.6a.545.545,0,0,1-.222.461,1,1,0,0,1-.613.167,1.522,1.522,0,0,1-.64-.116v-.34a1.794,1.794,0,0,0,.335.111,1.482,1.482,0,0,0,.33.041.543.543,0,0,0,.33-.081.261.261,0,0,0,.106-.218.269.269,0,0,0-.1-.209,1.494,1.494,0,0,0-.4-.2,1.071,1.071,0,0,1-.444-.279.573.573,0,0,1-.129-.377.518.518,0,0,1,.2-.434.877.877,0,0,1,.55-.158,1.679,1.679,0,0,1,.659.139l-.12.294a1.5,1.5,0,0,0-.548-.124.435.435,0,0,0-.277.076.245.245,0,0,0-.095.2.273.273,0,0,0,.038.147.379.379,0,0,0,.125.115,2.149,2.149,0,0,0,.312.143,1.734,1.734,0,0,1,.372.188.561.561,0,0,1,.173.2A.571.571,0,0,1-30.727,4.153Zm.3.6v-2.2h.377v2.2Zm1.782-1.195h.848V4.663a2.549,2.549,0,0,1-.4.092,2.957,2.957,0,0,1-.414.027,1.065,1.065,0,0,1-.807-.3A1.159,1.159,0,0,1-29.7,3.65a1.086,1.086,0,0,1,.32-.832,1.236,1.236,0,0,1,.881-.3,1.784,1.784,0,0,1,.684.133l-.132.3a1.382,1.382,0,0,0-.561-.124.774.774,0,0,0-.583.221.834.834,0,0,0-.214.606.877.877,0,0,0,.193.614.717.717,0,0,0,.556.21,1.907,1.907,0,0,0,.391-.044V3.866h-.478Zm3.073,1.195h-.378V3.759h-1.062v.993h-.377v-2.2h.377v.9h1.062v-.9h.378Zm1.257,0h-.377V2.858h-.678V2.549h1.732v.309h-.678Z" transform="translate(5858.121 16266.905)" fill="#D02528"></path>
    <path d="M-29.819-7.349l-.333-1.037h-.009q.018.316.018.422v.615H-30.4V-8.67h.4l.327,1.01h.006l.347-1.01h.4v1.321H-29.2v-.625q0-.044,0-.1t.013-.307h-.009l-.357,1.035Zm2.07,0-.1-.315h-.5l-.1.315h-.316l.488-1.327h.358l.49,1.327Zm-.17-.55q-.139-.427-.157-.484t-.025-.089q-.031.116-.179.572Zm1.129-.193h.548v.685a1.606,1.606,0,0,1-.251.058,1.71,1.71,0,0,1-.241.017.624.624,0,0,1-.478-.176.71.71,0,0,1-.165-.5.649.649,0,0,1,.191-.5.747.747,0,0,1,.531-.179,1.068,1.068,0,0,1,.41.081l-.1.224a.722.722,0,0,0-.315-.072.4.4,0,0,0-.3.122.46.46,0,0,0-.114.328.51.51,0,0,0,.092.329.325.325,0,0,0,.268.113.991.991,0,0,0,.186-.018v-.276h-.262Zm1.706.742-.1-.315h-.5l-.1.315H-26.1l.488-1.327h.358l.49,1.327Zm-.17-.55q-.139-.427-.157-.484t-.025-.089q-.031.116-.179.572Zm1.544.55H-24.74v-.182l.663-.908h-.645V-8.67h.993v.181l-.662.909h.68Zm.2,0V-8.67h.293v1.321Zm1.85,0h-.373l-.6-1h-.009q.018.265.018.378v.622h-.262V-8.67h.37l.6.99h.007q-.014-.258-.014-.364V-8.67h.264Zm1.127,0h-.8V-8.67h.8v.23h-.5v.29h.468v.23h-.468v.341h.5Z" transform="translate(5854.131 16276.537)"></path>
  </g>
</svg>