<svg xmlns:xlink="http://www.w3.org/1999/xlink" xmlns="http://www.w3.org/2000/svg" width="22" height="25" viewBox="0 0 27.346 31.347" class="jsx-1664042eb7d5154c"><defs class="jsx-1664042eb7d5154c"><style>.a{fill:none;stroke:#666;stroke-linecap:round;stroke-miterlimit:10;stroke-width:2px;}.b{fill:#cb0f22;font-size:9px;font-weight:800;}</style></defs><g transform="translate(0.75 1.059)" class="jsx-1664042eb7d5154c"><path d="M670.6,809.442l-7.7,6.994-4.932-4.923m.269,24.284-.26,2.036a1,1,0,0,0,.967,1.148h7.913a1,1,0,0,0,.967-1.148l-.258-2.036m8.259-.87a.884.884,0,0,1-.864.9h-24.12a.883.883,0,0,1-.862-.9v-16.41a.882.882,0,0,1,.862-.9h24.12a.883.883,0,0,1,.864.9Z" transform="translate(-649.973 -809.442)" class="jsx-1664042eb7d5154c a" stroke="#666666" fill="none" stroke-width="2px"></path><text transform="translate(2.982 20.265)" class="jsx-1664042eb7d5154c b" fill="#CB0F22"><tspan x="0" y="0" class="jsx-1664042eb7d5154c" fill="#CB0F22">LIVE</tspan></text></g></svg>