<svg xmlns:xlink="http://www.w3.org/1999/xlink" id="Layer_1" xmlns="http://www.w3.org/2000/svg" width="15.69" height="17.79" viewBox="0 0 15.69 17.79"><path fill="none" d="M5.63,15.99l-.09,.7-.02,.58,.09-.49h4.48s.05-.08,.05-.09l-.09-.7H5.63Z"></path><path fill="#CB0F22" d="M15.69,5.67c.01-.55-.43-1.01-.99-1.02h-6.3L12.56,.87c.21-.19,.22-.5,.03-.71-.19-.2-.5-.22-.71-.03L7.86,3.78,5.4,1.32c-.2-.19-.51-.19-.71,0-.19,.2-.19,.51,0,.71l2.62,2.62H.98C.43,4.66,0,5.12,0,5.66V14.97c0,.55,.43,1.01,.99,1.02h3.64l-.07,.57c-.09,.58,.32,1.13,.91,1.22,.02,0,.11,0,.13,0h4.51c.29,0,.55-.12,.75-.33,.2-.21,.3-.48,.29-.75,0-.02,0-.11,0-.13l-.07-.58h3.65c.55-.01,.98-.47,.98-1.02V5.67ZM4.88,11.6s.07,.01,.1,.04c.02,.03,.04,.06,.04,.1v.38s-.01,.07-.04,.09c-.03,.02-.06,.04-.1,.04H2.55s-.07-.01-.09-.04c-.02-.02-.04-.05-.04-.09v-3.5s.01-.07,.04-.09c.02-.02,.06-.04,.09-.04h.5s.07,.01,.09,.04,.03,.05,.03,.09v2.99h1.7Zm.66,.51v-3.5s.01-.07,.04-.09c.02-.02,.06-.04,.09-.04h.5s.07,.01,.09,.04,.03,.05,.03,.09v3.5s-.01,.07-.03,.09c-.02,.03-.05,.04-.09,.04h-.5s-.07-.01-.09-.04c-.02-.02-.04-.05-.04-.09Zm1.34-3.52s.01-.06,.03-.08,.05-.03,.08-.03h.47s.08,.01,.11,.04c.03,.02,.05,.05,.06,.08l.91,2.77,.91-2.77s.03-.06,.05-.08c.03-.02,.07-.04,.11-.04h.47s.05,.01,.08,.03,.04,.05,.04,.08v.05s-1.16,3.45-1.16,3.45c-.03,.1-.1,.15-.2,.15h-.59c-.1,0-.17-.05-.2-.15l-1.15-3.45v-.05Zm6.25,1.46s.07,.01,.1,.03c.03,.02,.04,.05,.04,.09v.33s-.01,.07-.04,.09c-.02,.02-.06,.04-.1,.04h-1.65v.98h1.81s.07,.01,.1,.04c.03,.03,.04,.06,.04,.1v.35s-.01,.07-.04,.09c-.02,.02-.06,.04-.1,.04h-2.41s-.07-.01-.09-.04c-.03-.02-.04-.05-.04-.09v-3.5s.01-.07,.04-.1c.02-.02,.05-.04,.09-.04h2.36s.07,.01,.1,.04c.03,.03,.04,.06,.04,.1v.35s-.01,.07-.04,.09c-.02,.02-.06,.03-.1,.03h-1.77v.95h1.65Zm-3.04,6.74H5.62l-.09,.49,.02-.58,.09-.7h4.43l.09,.7s-.05,.08-.05,.09Z"></path><path fill="#FFFFFF" d="M3.15,8.51s-.05-.04-.09-.04h-.5s-.07,.01-.09,.04c-.02,.02-.04,.05-.04,.09v3.5s.01,.07,.04,.09c.02,.03,.06,.04,.09,.04h2.33s.07-.01,.1-.04c.02-.02,.04-.05,.04-.09v-.38s-.01-.07-.04-.1c-.03-.03-.06-.04-.1-.04h-1.7v-2.99s-.01-.07-.03-.09Z"></path><path fill="#FFFFFF" d="M6.17,12.24s.07-.01,.09-.04c.02-.02,.03-.05,.03-.09v-3.5s-.01-.07-.03-.09-.05-.04-.09-.04h-.5s-.07,.01-.09,.04c-.02,.02-.04,.05-.04,.09v3.5s.01,.07,.04,.09c.02,.03,.06,.04,.09,.04h.5Z"></path><path fill="#FFFFFF" d="M8.24,12.24h.59c.1,0,.17-.05,.2-.15l1.15-3.45v-.05s0-.06-.02-.08-.05-.03-.08-.03h-.47s-.08,.01-.11,.04c-.03,.03-.05,.05-.05,.08l-.91,2.77-.91-2.77s-.03-.06-.06-.08c-.03-.02-.06-.04-.11-.04h-.47s-.06,.01-.08,.03-.03,.05-.03,.08v.05s1.16,3.45,1.16,3.45c.03,.1,.1,.15,.2,.15Z"></path><path fill="#FFFFFF" d="M13.26,9.1s.07-.01,.1-.03c.03-.02,.04-.05,.04-.09v-.35s-.01-.07-.04-.1c-.02-.02-.06-.04-.1-.04h-2.36s-.07,.01-.09,.04c-.02,.03-.04,.06-.04,.1v3.5s.01,.07,.04,.09c.02,.03,.05,.04,.09,.04h2.41s.07-.01,.1-.04c.03-.02,.04-.05,.04-.09v-.35s-.01-.07-.04-.1c-.02-.03-.06-.04-.1-.04h-1.81v-.98h1.65s.07-.01,.1-.04c.03-.02,.04-.05,.04-.09v-.33s-.01-.07-.04-.09c-.02-.02-.06-.03-.1-.03h-1.65v-.95h1.77Z"></path></svg>