<svg xmlns:xlink="http://www.w3.org/1999/xlink" xmlns="http://www.w3.org/2000/svg" viewBox="0 0 20 20" width="20"  height="20" ><path fill="#55A4DB" d="M25,23.44v.85a.71.71,0,0,1-.71.71H8.74A.71.71,0,0,1,8,24.29V8.71A.72.72,0,0,1,8.74,8h.85V22.72a.72.72,0,0,0,.71.72Z" transform="translate(-8.02 -5)"></path><path fill="#55A4DB" d="M27.31,5H11.73a.71.71,0,0,0-.71.71V21.29a.71.71,0,0,0,.71.72H27.31a.71.71,0,0,0,.71-.72V5.71A.71.71,0,0,0,27.31,5ZM23.42,18.11H15.63a.72.72,0,0,1,0-1.43h7.79a.72.72,0,0,1,0,1.43Zm0-3.9H15.63a.71.71,0,0,1,0-1.42h7.79a.71.71,0,1,1,0,1.42Zm0-3.89H15.63a.72.72,0,0,1,0-1.43h7.79a.72.72,0,0,1,0,1.43Z" transform="translate(-8.02 -5)"></path></svg>