<svg xmlns:xlink="http://www.w3.org/1999/xlink" xmlns="http://www.w3.org/2000/svg" width="25" height="25" viewBox="0 0 22.125 18.665"><g id="Group_5" data-name="Group 5" transform="translate(-2611.545 2529.513)"><path id="Union_2" data-name="Union 2" d="M-2918.184,2850.842l-.057-.2c-.023-.111-.087-.581-.128-1.046a19.018,19.018,0,0,0-1.447-4.761l-.568-1.478.648-.185a10.322,10.322,0,0,1,.7,1.1c.424.842.666,1,1.635,1.455a2.352,2.352,0,0,0,.333.15l-.117-1.042c-.2-1.344.728-1.822,1.48-.086a7.027,7.027,0,0,0,1.058,1.776h.038c.35.02.613-.961,1.04-1.713a17.964,17.964,0,0,0,1.08-2.511c.343-.948.662-2.944.735-3.04s1.407-.1,1.574.277c.109.265.4,2.2.648,2.907a11.21,11.21,0,0,0,1.067,2.367l.927,1.713a1.709,1.709,0,0,1,.285-.029,2.941,2.941,0,0,1,.245-.443c.28-.365.445-.939.81-1.592.2-.519.946-1.22,1,.29l.1,1.415a.882.882,0,0,0,.1-.048,4.194,4.194,0,0,0,1.935-1.8c.208-.367.447-.787.719-1.207.995-.867.955-.412.647.245l-.5,1.295c-.274.715-.712,1.929-.968,2.695a8.694,8.694,0,0,0-.552,2.325,8.209,8.209,0,0,1-.135,1.045c-.048.111-.68.118-7.187.118Z" transform="translate(5533.5 -5367.194)" fill="none" stroke="#707070" stroke-linejoin="round" stroke-width="1"></path><path id="Path_3443" data-name="Path 3443" d="M2.933,11.648c-.5.156-.654.457-.66,1.36a2.069,2.069,0,0,0,.35,1.432c.17.166.648.176,5.818.208,6.127.021,6.109.021,6.351-.529a4.126,4.126,0,0,0,.036-1.889c-.206-.654.109-.623-6.055-.633C5.694,11.586,3.066,11.607,2.933,11.648Z" transform="translate(2613.908 -2525.997)" fill="none" stroke="#707070" stroke-linejoin="round" stroke-width="1"></path><path id="Path_17526" data-name="Path 17526" d="M6.458,11.6a1.5,1.5,0,1,0,1.4,1.486,1.5,1.5,0,0,0-1.4-1.486Z" transform="translate(2606.686 -2537.611)" fill="#BB261A"></path><path id="Path_17527" data-name="Path 17527" d="M6.192,11.6A1.25,1.25,0,1,0,7.36,12.839,1.25,1.25,0,0,0,6.192,11.6Z" transform="translate(2610.64 -2537.435)" fill="#BB261A"></path><path id="Path_17528" data-name="Path 17528" d="M6.565,11.6a1.6,1.6,0,1,0,1.5,1.585,1.6,1.6,0,0,0-1.5-1.585Z" transform="translate(2616.04 -2541.111)" fill="#BB261A"></path><path id="Path_17529" data-name="Path 17529" d="M6.192,11.6A1.25,1.25,0,1,0,7.36,12.839,1.25,1.25,0,0,0,6.192,11.6Z" transform="translate(2621.64 -2537.435)" fill="#BB261A"></path><path id="Path_17530" data-name="Path 17530" d="M6.458,11.6a1.5,1.5,0,1,0,1.4,1.486,1.5,1.5,0,0,0-1.4-1.486Z" transform="translate(2625.811 -2537.611)" fill="#BB261A"></path></g></svg>