<svg xmlns:xlink="http://www.w3.org/1999/xlink" xmlns="http://www.w3.org/2000/svg" viewBox="0 0 19.98 20" width="19.98"  height="20" ><path fill="#109A48" d="M20.17,11.93V7.44A1.27,1.27,0,0,0,21,6.26,1.25,1.25,0,0,0,19.72,5h-3.3a1.26,1.26,0,0,0-1.27,1.26A1.28,1.28,0,0,0,16,7.44v4.49A6.87,6.87,0,0,0,15.82,25h4.5a6.87,6.87,0,0,0-.15-13.06ZM15.89,22a2,2,0,1,1,2-2A2,2,0,0,1,15.89,22Zm4.6.38a1.62,1.62,0,1,1,1.63-1.62A1.62,1.62,0,0,1,20.49,22.36Zm-8.47-6a6.45,6.45,0,0,1,4.27-4,.25.25,0,0,0,.18-.24V7.25a.26.26,0,0,0-.2-.25.76.76,0,0,1-.62-.74.77.77,0,0,1,.77-.76h3.3a.77.77,0,0,1,.77.76.76.76,0,0,1-.62.74.26.26,0,0,0-.2.25v4.87a.25.25,0,0,0,.18.24,6.45,6.45,0,0,1,4.27,4Z" transform="translate(-5.01 -5)"></path><path fill="#109A48" d="M7.92,25A2.09,2.09,0,0,0,10,22.9V7.44A1.26,1.26,0,0,0,9.53,5H6.32a1.26,1.26,0,0,0-.49,2.44V22.9A2.09,2.09,0,0,0,7.92,25ZM5.51,6.16a.8.8,0,0,1,.81-.66H9.53a.79.79,0,0,1,.8.66A.75.75,0,0,1,9.72,7a.27.27,0,0,0-.2.25V8.87H6.33V7.25A.27.27,0,0,0,6.12,7,.76.76,0,0,1,5.51,6.16Z" transform="translate(-5.01 -5)"></path></svg>