<svg xmlns:xlink="http://www.w3.org/1999/xlink" id="Layer_1" data-name="Layer 1" xmlns="http://www.w3.org/2000/svg" viewBox="0 0 20.01 20" width="20.01"  height="20" ><path fill="#ED248E" d="M11.52,8.21a.53.53,0,0,0,.76-.75l-1-1a.56.56,0,0,0-.76,0h0a.56.56,0,0,0,0,.76Z" transform="translate(-5 -5)"></path><path fill="#ED248E" d="M20.07,10.06a.52.52,0,0,0,.38-.16l1-1a.54.54,0,1,0-.76-.76l-.95,1a.49.49,0,0,0-.16.37.53.53,0,0,0,.53.54Z" transform="translate(-5 -5)"></path><path fill="#ED248E" d="M7.9,13.78H6.54a.54.54,0,0,0,0,1.07H7.9a.54.54,0,0,0,0-1.07Z" transform="translate(-5 -5)"></path><path fill="#ED248E" d="M19.25,14a1.51,1.51,0,0,0-1-1.44.13.13,0,0,1-.08-.16,2.23,2.23,0,0,0-4-1.75l0,0a.14.14,0,0,1-.2,0,1.2,1.2,0,0,0-1-.56h0a1.21,1.21,0,0,0-1.21,1.21,1.32,1.32,0,0,0,.06.39.12.12,0,0,1,0,.1.13.13,0,0,1-.09.07h0A2.23,2.23,0,0,0,10.07,14v.2h9.18Z" transform="translate(-5 -5)"></path><path fill="#ED248E" d="M19.25,14.76H10.08l.66,9.56h4.12V21.08a.14.14,0,0,1,.14-.14h3.81Z" transform="translate(-5 -5)"></path><path fill="#ED248E" d="M15.14,21.23V25h3.52L20,23.39a.13.13,0,0,1,.2,0L21.49,25H25V21.23Zm4.34,1.58-1.06,1.36a.52.52,0,0,1-.38.15H16.35a.53.53,0,0,1-.53-.53V22.44a.54.54,0,0,1,.53-.54H19.1a.52.52,0,0,1,.37.16A.53.53,0,0,1,19.48,22.81Zm4.85,1a.54.54,0,0,1-.54.53H22.1a.55.55,0,0,1-.38-.15l-1-1.36a.51.51,0,0,1-.15-.37.48.48,0,0,1,.15-.38.55.55,0,0,1,.38-.16h2.74a.54.54,0,0,1,.54.54Z" transform="translate(-5 -5)"></path><path fill="#ED248E" d="M16.86,8.77h0a1.41,1.41,0,0,0,1.19-.68,1.21,1.21,0,0,0,1.2-1.21,1.19,1.19,0,0,0-.53-1s0,0,0,.06a.16.16,0,0,1-.16.16h-.19s-.05,0,0,0h-.06l-.09,0-.1,0,0,0h0l0,0-.05,0-.08,0-.08,0h0l0,0-.06.06,0,0v0l0,.06v0h0s0,0,0,.08h0v.08h0a.31.31,0,0,0,0,.08v.06l.05.09,0,0s0,0,0,0l0,0h0l.06,0,0,0h0l.14,0h.28v0L18.17,7l0,0,0,0a.16.16,0,0,1-.05-.22.16.16,0,0,1,.22-.06.7.7,0,0,1,.31.37.3.3,0,0,1-.17.33.85.85,0,0,1-.73,0,.76.76,0,0,1-.44-.71A.88.88,0,0,1,17.74,6a1.47,1.47,0,0,1,.8-.21,1.43,1.43,0,0,0-.42-.1,1.22,1.22,0,0,0-1.5-.6,1.21,1.21,0,0,0-.77,1.38,1.38,1.38,0,0,0-.37.94h0a1.34,1.34,0,0,0,.41,1A1.36,1.36,0,0,0,16.86,8.77Z" transform="translate(-5 -5)"></path><path fill="#ED248E" d="M22.82,13.11a.17.17,0,0,1-.11-.2h0l0,0a.38.38,0,0,0-.11.11.09.09,0,0,1,0,0v0a.2.2,0,0,0,0,.11.35.35,0,0,0,.26.22.55.55,0,0,0,.41-.07.36.36,0,0,0,.11-.1l0,0v-.17h0a.07.07,0,0,0,0-.05l0-.09a.21.21,0,0,0,0-.07,1.4,1.4,0,0,0-.57-.61l-.09,0h0l0,0a.88.88,0,0,0-.28,0,4,4,0,0,0-.69.12.23.23,0,0,1-.12,0,1.2,1.2,0,0,0,1,1.91,1.38,1.38,0,0,0,.71.59,1.35,1.35,0,0,0,.47.09,1.53,1.53,0,0,0,.59-.13,1.43,1.43,0,0,0,.71-.78,1.35,1.35,0,0,0-.05-1.06,1.41,1.41,0,0,0-.23-.35,1.18,1.18,0,0,0-.12-.8,1.2,1.2,0,0,0-2.15,0,1.32,1.32,0,0,0-.48.13,1.85,1.85,0,0,1,.62,0,1.17,1.17,0,0,1,.58.28,1.43,1.43,0,0,1,.59,1,.77.77,0,0,1-1.38.4.61.61,0,0,1,0-.64.63.63,0,0,1,.46-.28.29.29,0,0,1,.25.1A.37.37,0,0,1,23,13,.16.16,0,0,1,22.82,13.11Z" transform="translate(-5 -5)"></path><path fill="#ED248E" d="M8.51,21.26a.17.17,0,0,1-.12.28h0a.14.14,0,0,1-.09,0h0s0,0,0,0a.45.45,0,0,0-.1.09,1.65,1.65,0,0,0-.15.25.67.67,0,0,0,0,.63.41.41,0,0,0,.43.21.2.2,0,0,0,.17-.13.18.18,0,0,0,0-.1.23.23,0,0,0,0-.09.2.2,0,0,0-.09-.09l0,0h0a.22.22,0,0,1-.11.12.18.18,0,0,1-.2-.12c-.07-.19.09-.32.26-.33a.55.55,0,0,1,.43.2.58.58,0,0,1,.14.47.55.55,0,0,1-.3.38.75.75,0,0,1-.49,0,.7.7,0,0,1-.39-.28,1,1,0,0,1-.09-1,1.52,1.52,0,0,1,.22-.34.46.46,0,0,1,.37-.2h0l0,0h0A1.21,1.21,0,0,0,6,22a1.4,1.4,0,0,0-.37.93h0a1.39,1.39,0,0,0,.41,1,1.35,1.35,0,0,0,1,.4h0a1.4,1.4,0,0,0,1.19-.67,1.21,1.21,0,0,0,.27-2.39Z" transform="translate(-5 -5)"></path><path fill="#ED248E" d="M6.92,11.39a1.5,1.5,0,0,0,.47.08,1.45,1.45,0,0,0,.54-.11,1.25,1.25,0,0,1-.28-.15A1.62,1.62,0,0,1,7,10.06a.73.73,0,0,1,.15-.55.72.72,0,0,1,.57-.21l.07,0h.06l0,0a.3.3,0,0,0,0-.08.19.19,0,0,0,0-.1S8,9,8,9a.17.17,0,0,1,.17-.16.18.18,0,0,1,.11,0,.16.16,0,0,1,0,.12.41.41,0,0,1,0,.19.62.62,0,0,1-.16.31.54.54,0,0,1-.18.11.44.44,0,0,1-.2,0H7.59l-.06,0h0l-.06,0h0l0,0s0,0,0,0,0,0,0,0l0,0s0,0,0,.06h0v0a.9.9,0,0,0,0,.24l0,.12a.14.14,0,0,1,0,.06l0,0a1.19,1.19,0,0,0,.13.25,1.26,1.26,0,0,0,.35.34.66.66,0,0,0,.45.12,1.49,1.49,0,0,0,.35-.53h0l0,0h0l-.09,0h0l0,0-.09,0h-.1l0,0,0,0v0h0l0,.05a.17.17,0,0,1-.32-.09.49.49,0,0,1,.44-.38.78.78,0,0,1,.39.12,1.4,1.4,0,0,0-.12-.7,1.21,1.21,0,0,0-.24-.35,1.19,1.19,0,0,0-.11-.81,1.21,1.21,0,0,0-2.16,0,1.21,1.21,0,0,0,.07,2.41A1.33,1.33,0,0,0,6.92,11.39Z" transform="translate(-5 -5)"></path></svg>