<svg xmlns:xlink="http://www.w3.org/1999/xlink" xmlns="http://www.w3.org/2000/svg" viewBox="0 0 16.74 20" width="16.74"  height="20" ><path fill="#0CAD4B" d="M23.34,7.43a.42.42,0,0,0-.4-.28H21.22V5.43a.42.42,0,0,0-.28-.4.4.4,0,0,0-.47.12l-2.58,3a.48.48,0,0,0-.1.28V10l-1,1a6,6,0,1,0-7.08,9.6L6.72,24.31a.43.43,0,0,0,.08.6.41.41,0,0,0,.26.09.44.44,0,0,0,.34-.17l3-3.86,0-.07a6.05,6.05,0,0,0,4.38,0l.05.07,3,3.86a.42.42,0,0,0,.34.17.43.43,0,0,0,.34-.69l-2.95-3.79a6,6,0,0,0,3-5.22,5.94,5.94,0,0,0-1.32-3.75l1.06-1h1.55a.43.43,0,0,0,.27-.1l3-2.58A.42.42,0,0,0,23.34,7.43Zm-6,7.87a4.73,4.73,0,1,1-1.56-3.5l-.63.58A3.86,3.86,0,1,0,16.5,15.3,3.88,3.88,0,0,0,15.75,13l-.95.88a2.62,2.62,0,0,1,.41,1.41,2.56,2.56,0,1,1-1-2l-.64.6a1.67,1.67,0,0,0-.93-.28,1.74,1.74,0,1,0,1.51.91l-1.22,1.13a.46.46,0,0,1-.29.11h0a.46.46,0,0,0,.29-.11l4.36-4-.91.84A4.63,4.63,0,0,1,17.36,15.3Z" transform="translate(-6.63 -5)"></path></svg>