<svg xmlns:xlink="http://www.w3.org/1999/xlink" xmlns="http://www.w3.org/2000/svg" viewBox="0 0 20.33 20" width="20.33" height="20" ><path fill="#CB2026" d="M17.74,20.9l.62.25a6.11,6.11,0,0,1,.27-.58l-.58-.32A5.51,5.51,0,0,0,17.74,20.9Z" transform="translate(-4.83 -5)"></path><path fill="#CB2026" d="M19.19,18.52l.54.38c.14-.2.27-.39.39-.58L19.56,18Z" transform="translate(-4.83 -5)"></path><path fill="#CB2026" d="M20.46,16.2l.61.26c.09-.22.18-.43.26-.65l-.63-.23Z" transform="translate(-4.83 -5)"></path><path fill="#CB2026" d="M21.35,10.46a6.37,6.37,0,0,1,.11.63l.66-.08c0-.24-.07-.47-.12-.71Z" transform="translate(-4.83 -5)"></path><path fill="#CB2026" d="M21.17,8.33c-.13-.2-.27-.39-.42-.58l-.52.41a6.42,6.42,0,0,1,.38.53Z" transform="translate(-4.83 -5)"></path><path fill="#CB2026" d="M19.19,6.31c-.2-.13-.4-.26-.61-.37l-.32.58c.19.11.38.22.55.34Z" transform="translate(-4.83 -5)"></path><path fill="#CB2026" d="M16.59,5.2c-.23,0-.47-.09-.7-.12l-.09.66.64.11Z" transform="translate(-4.83 -5)"></path><path fill="#CB2026" d="M17.55,22h-5.4a.62.62,0,0,0-.65.6v.05a.66.66,0,0,0,.65.68h5.37a.67.67,0,0,0,.65-.68v0A.63.63,0,0,0,17.55,22Z" transform="translate(-4.83 -5)"></path><path fill="#CB2026" d="M17.28,23.67H12.42a.59.59,0,0,0-.59.6v.05a.64.64,0,0,0,.59.68h4.83a.63.63,0,0,0,.58-.68v0A.59.59,0,0,0,17.28,23.67Z" transform="translate(-4.83 -5)"></path><path fill="#CB2026" d="M12.17,13a2.67,2.67,0,0,0,2.66,2.67V10.33A2.67,2.67,0,0,0,12.17,13Z" transform="translate(-4.83 -5)"></path><path fill="#CB2026" d="M12.09,21.68h2.74v-4a5.46,5.46,0,0,1-.57,0l-.14-.7a3.55,3.55,0,0,1-.64-.17l-.47.53a4.56,4.56,0,0,1-1-.57l.22-.67a4.17,4.17,0,0,1-.47-.47l-.67.23a4.82,4.82,0,0,1-.57-1l.53-.48a4.64,4.64,0,0,1-.17-.64l-.73-.14V12.43l.73-.14a4.64,4.64,0,0,1,.17-.64l-.53-.48a4.82,4.82,0,0,1,.57-1l.67.23a4.17,4.17,0,0,1,.47-.47L12,9.28a4.56,4.56,0,0,1,1-.57l.47.53a3.55,3.55,0,0,1,.64-.17l.14-.7a5.46,5.46,0,0,1,.57,0v-3c-3.86,0-7,2.79-7,6.44a13.54,13.54,0,0,0,1.83,6.07c.64,1.13,2,2.55,2.15,3.86A.86.86,0,0,1,12.09,21.68Z" transform="translate(-4.83 -5)"></path><rect fill="#CB2026" x="0.67" y="18" width="0.67" height="0.67"></rect><rect fill="#CB2026" x="0.67" y="19.33" width="0.67" height="0.67"></rect><rect fill="#CB2026" x="1.33" y="18.67" width="0.67" height="0.67"></rect><rect fill="#CB2026" y="18.67" width="0.67" height="0.67"></rect><rect fill="#CB2026" x="19" width="0.67" height="0.67"></rect><rect fill="#CB2026" x="19" y="1.33" width="0.67" height="0.67"></rect><rect fill="#CB2026" x="19.67" y="0.67" width="0.67" height="0.67"></rect><rect fill="#CB2026" x="18.33" y="0.67" width="0.67" height="0.67"></rect><path fill="#CB2026" d="M20.5,13.06a1,1,0,0,0-.61.61H17.83V12.33h1.34A.33.33,0,0,0,19.5,12h0V10.61A1,1,0,1,0,18.22,10a1,1,0,0,0,.61.61v1.06h-1V11h-1V9.27A1,1,0,0,0,17.44,8a1,1,0,0,0-1.94.33,1,1,0,0,0,.67.94V11h-1v4h.66v1.33a.34.34,0,0,0,.34.34h1v.39a1,1,0,1,0,.66,0v-.73A.33.33,0,0,0,17.5,16h-1V15h1.33v-.67h2.06a1,1,0,1,0,.61-1.27Z" transform="translate(-4.83 -5)"></path></svg>