<svg xmlns:xlink="http://www.w3.org/1999/xlink" data-name="Layer 1" xmlns="http://www.w3.org/2000/svg" viewBox="0 0 16.76 20" width="16.76"  height="20" ><path fill="#23BCEE" d="M297.1,427.45a7.5,7.5,0,0,0,5.95-12l0,0,0-.05a7.6,7.6,0,0,0-2.53-2.08l0,0h-.05a7.43,7.43,0,0,0-6.17-.17l-.06,0a7.5,7.5,0,0,0-4.52,6.88h0A7.5,7.5,0,0,0,297.1,427.45Zm.11-.65c-.13-.95.53-2.31,1.87-3.86a1.25,1.25,0,0,0-.06-1.78,1.3,1.3,0,0,1-.26-.92,1,1,0,0,1,.41-.95c1-.64,3.63.34,4.76.86a6.85,6.85,0,0,1-6.72,6.65ZM300.39,414a6.91,6.91,0,0,1,1.88,1.52,3.56,3.56,0,0,1-1.4.32,2,2,0,0,1-1.27-.25c-.06-.05-.07-.07,0-.14.32-.61.53-1,.71-1.27Zm-6.05-.27c.78.16,1.84.59,1.83,1.06a3,3,0,0,1-1,1.87,2.19,2.19,0,0,0-.69,1.75,1.68,1.68,0,0,0,1.15,1.21.88.88,0,0,1,.6.77,1.33,1.33,0,0,1-.55,1.28.69.69,0,0,1-.78,0c-1.21-.76-2.31-.71-3.1.15-.06.06-.09.06-.11,0s-.36-.1-.91-1a8.82,8.82,0,0,1-.51-1A6.84,6.84,0,0,1,294.34,413.68Z" transform="translate(-289.62 -411.02)"></path><path fill="#23BCEE" d="M306.39,419.77a9.34,9.34,0,0,0-3.92-7.46h0s0,0,0,0l.78-.68a.33.33,0,0,0,.06-.45.32.32,0,0,0-.46-.06l0,0-.78.69a.66.66,0,0,0-.05.94.52.52,0,0,0,.11.1,8.65,8.65,0,1,1-10.8,13.48.72.72,0,0,0-1,.05l0,.05-.55.74a.32.32,0,1,0,.51.38l.56-.73a.05.05,0,0,1,.05,0s0,0,.06,0a9.26,9.26,0,0,0,6.23,2.41h.12l.45,0v1.19h-1.09a.32.32,0,0,0,0,.64h2.83a.32.32,0,1,0,0-.64h-1.09v-1.25a9.29,9.29,0,0,0,8.07-9.36Z" transform="translate(-289.62 -411.02)"></path></svg>